<?xml version="1.0" encoding="UTF-8"?>
<svg xmlns="http://www.w3.org/2000/svg" xmlns:xlink="http://www.w3.org/1999/xlink" width="384pt" height="383.999986pt" viewBox="0 0 384 383.999986" version="1.2">
<defs>
<clipPath id="clip1">
  <path d="M 30.359375 4.402344 L 353.609375 4.402344 L 353.609375 384 L 30.359375 384 Z M 30.359375 4.402344 "/>
</clipPath>
<clipPath id="clip2">
  <path d="M 115.199219 115.199219 L 247 115.199219 L 247 193 L 115.199219 193 Z M 115.199219 115.199219 "/>
</clipPath>
<clipPath id="clip3">
  <path d="M 137 192 L 268.949219 192 L 268.949219 268.949219 L 137 268.949219 Z M 137 192 "/>
</clipPath>
</defs>
<g id="surface1">
<path style="fill-rule:evenodd;fill:rgb(0%,0%,0%);fill-opacity:1;stroke-width:2;stroke-linecap:butt;stroke-linejoin:miter;stroke:rgb(0%,0%,0%);stroke-opacity:1;stroke-miterlimit:4;" d="M 790.934865 118.809287 L 796.517793 118.809287 L 820.549384 130.890868 C 836.56489 138.939701 847.147456 144.222268 852.297083 146.721906 C 857.430044 149.221543 874.962107 157.337033 904.843274 171.08504 C 934.724441 184.833046 950.173321 191.765374 951.173249 191.915353 C 952.173176 192.048667 960.1226 195.31486 974.988189 201.697268 C 989.853778 208.079676 1001.302948 212.812323 1009.302368 215.86188 C 1017.318454 218.911438 1028.900947 223.077501 1044.066515 228.360068 C 1059.215417 233.625971 1068.798055 236.958821 1072.797765 238.358618 C 1076.814141 239.741751 1081.813778 241.408176 1087.813343 243.357893 C 1093.829574 245.290947 1101.545681 247.65727 1110.978331 250.423536 C 1120.427646 253.206465 1132.443441 256.539316 1147.025718 260.422086 C 1161.607994 264.32152 1175.773634 267.787684 1189.489306 270.837242 C 1203.221644 273.8868 1212.087668 275.836517 1216.087378 276.66973 C 1220.103753 277.502942 1232.819498 279.869266 1254.267944 283.752036 C 1275.733054 287.634807 1289.165414 290.00113 1294.598353 290.834343 C 1300.031293 291.667555 1313.330329 293.750586 1334.495461 297.083437 C 1355.660593 300.416287 1366.393149 302.082712 1366.676461 302.082712 C 1366.959774 302.082712 1377.259028 304.015765 1397.574222 307.915199 C 1417.87275 311.79797 1428.105342 313.814344 1428.238665 313.947658 L 1428.455316 314.164293 L 1427.172076 376.221961 C 1426.305472 417.599295 1424.172294 471.041546 1420.739209 536.582042 C 1417.306125 602.105875 1414.589655 647.932563 1412.573134 674.028779 C 1410.573279 700.124995 1408.290112 722.488419 1405.723631 741.085722 C 1403.140485 759.69969 1400.140702 777.330467 1396.707618 793.994717 C 1393.274533 810.642303 1389.558136 827.456532 1385.558426 844.38741 C 1381.542051 861.318289 1377.975642 876.1828 1374.825871 888.947616 C 1371.676099 901.729096 1367.959702 915.477102 1363.676679 930.191635 C 1359.376991 944.906168 1356.81051 953.788214 1355.960572 956.837771 C 1355.093968 959.903993 1353.810727 963.786764 1352.094185 968.502747 C 1350.377643 973.235394 1348.377788 979.051217 1346.077955 986.00021 C 1343.794787 992.949202 1340.228379 1002.947752 1335.362065 1015.99586 C 1330.495751 1029.043968 1326.496041 1039.459125 1323.346269 1047.224665 C 1320.196498 1055.00687 1316.346777 1064.305522 1311.763776 1075.137285 C 1307.180774 1085.969047 1301.331198 1099.017155 1294.181717 1114.281609 C 1287.032235 1129.562726 1282.732547 1138.444772 1281.299317 1140.944409 C 1279.866088 1143.444047 1274.649799 1152.542727 1265.650452 1168.223787 C 1256.634439 1183.921511 1251.201499 1193.220162 1249.334968 1196.136406 C 1247.485102 1199.05265 1243.05209 1206.401584 1236.035932 1218.216538 C 1229.036439 1230.014827 1224.453438 1237.51374 1222.320259 1240.696612 C 1220.170415 1243.896148 1216.88732 1248.895423 1212.454308 1255.694437 C 1208.021296 1262.493451 1204.438222 1267.776018 1201.721753 1271.525475 C 1199.005283 1275.274931 1195.855511 1279.724286 1192.289103 1284.856875 C 1188.70603 1289.989464 1185.272945 1294.705447 1181.98985 1299.021488 C 1178.706754 1303.320864 1176.123608 1306.937007 1174.273742 1309.85325 C 1172.407211 1312.769494 1169.690741 1316.518951 1166.107668 1321.084955 C 1162.54126 1325.667624 1159.108175 1330.250293 1155.82508 1334.832962 C 1152.525319 1339.415631 1148.958911 1344.148278 1145.092524 1348.997574 C 1141.226138 1353.863536 1137.943043 1358.029598 1135.226573 1361.495762 C 1132.510103 1364.961926 1126.710524 1371.560969 1117.8445 1381.276227 C 1108.978476 1390.991485 1098.545899 1402.10654 1086.530103 1414.604728 C 1074.514307 1427.102916 1063.931741 1437.7847 1054.782405 1446.68341 C 1045.633068 1455.565455 1039.550175 1461.181308 1036.550393 1463.547631 C 1033.55061 1465.897291 1026.534452 1471.879756 1015.53525 1481.4617 C 1004.519382 1491.02698 997.803202 1496.859468 995.370045 1498.942499 C 992.936888 1501.02553 986.937323 1506.174784 977.354684 1514.356931 C 967.772045 1522.555742 961.472502 1527.821645 958.47272 1530.187968 C 955.472937 1532.554292 952.039853 1535.320557 948.173466 1538.520093 C 944.30708 1541.702965 938.957468 1546.085663 932.091299 1551.634859 C 925.22513 1557.184054 920.008841 1561.283459 916.425768 1563.916411 C 912.859359 1566.566027 909.426275 1568.915686 906.126514 1570.998717 C 902.843419 1573.081749 896.843854 1576.697891 888.111153 1581.83048 C 879.395119 1586.979733 873.662201 1590.445898 870.945731 1592.245637 C 868.229261 1594.045376 865.162817 1595.928436 861.729733 1597.878153 C 858.296648 1599.811206 854.713575 1602.044216 850.997177 1604.527189 C 847.28078 1607.026827 844.56431 1608.84323 842.847768 1609.94307 C 841.131226 1611.059575 837.414829 1613.009292 831.698576 1615.775558 C 825.982324 1618.558488 819.116155 1621.758024 811.100069 1625.357502 C 803.100649 1628.973644 797.517721 1631.323304 794.367949 1632.439808 L 789.651624 1634.106233 L 784.501998 1632.856415 C 781.068913 1632.023202 777.352516 1630.640069 773.352806 1628.690352 C 769.353096 1626.757299 762.620251 1623.424449 753.187601 1618.691802 C 743.754951 1613.975819 738.322012 1611.059575 736.888783 1609.94307 C 735.455553 1608.84323 731.805818 1606.410249 725.939576 1602.660793 C 720.09 1598.911337 715.656988 1596.128407 712.64054 1594.328668 C 709.640758 1592.528929 703.774516 1589.062765 695.058482 1583.913511 C 686.325781 1578.780922 680.326216 1575.16478 677.043121 1573.081749 C 673.74336 1570.998717 670.310276 1568.649058 666.743867 1565.999442 C 663.160794 1563.366491 659.094422 1560.250276 654.511421 1556.634134 C 649.945085 1553.017991 643.862193 1548.102037 636.279409 1541.852944 C 628.696626 1535.60385 622.130435 1530.187968 616.547506 1525.605299 C 610.964578 1521.022631 602.815168 1514.073638 592.099279 1504.774987 C 581.366723 1495.476335 574.500554 1489.643847 571.500772 1487.277524 C 568.500989 1484.927864 561.918133 1479.378669 551.768869 1470.629938 C 541.619605 1461.881206 535.970014 1456.948588 534.820098 1455.832083 C 533.670181 1454.732243 528.603881 1449.799625 519.587868 1441.050893 C 510.588521 1432.302162 504.288977 1426.053068 500.705904 1422.303612 C 497.139496 1418.554155 489.273399 1410.22203 477.12428 1397.3239 C 464.958495 1384.409106 457.67569 1376.493588 455.242533 1373.577344 C 452.809376 1370.6611 449.226302 1366.361723 444.509978 1360.66255 C 439.793653 1354.963376 436.077256 1350.397372 433.360786 1346.914543 C 430.644316 1343.448379 427.927846 1339.832237 425.211377 1336.08278 C 422.494907 1332.333324 419.628448 1328.450554 416.628665 1324.434469 C 413.628883 1320.401721 410.912413 1316.785579 408.479256 1313.602707 C 406.046099 1310.403171 403.962917 1307.553584 402.26304 1305.053946 C 400.546498 1302.554309 398.180003 1299.30478 395.18022 1295.272031 C 392.180438 1291.239283 389.597292 1287.639805 387.447447 1284.440269 C 385.314269 1281.240733 382.44781 1277.07467 378.881402 1271.942081 C 375.298328 1266.809492 372.581858 1262.776743 370.715327 1259.860499 C 368.865461 1256.944256 365.865679 1252.361587 361.715979 1246.112493 C 357.56628 1239.880063 354.849811 1235.564022 353.56657 1233.214363 C 352.266664 1230.84804 348.700256 1224.882238 342.834015 1215.300294 C 336.967773 1205.71835 333.118053 1199.469256 331.251521 1196.553012 C 329.401655 1193.636769 324.751992 1185.654593 317.302532 1172.606485 C 309.869738 1159.558377 304.303475 1149.693141 300.570412 1143.02744 C 296.854015 1136.36174 293.570919 1130.112646 290.704461 1124.280159 C 287.854667 1118.464335 283.854957 1109.715604 278.70533 1098.050629 C 273.555704 1086.385654 270.972558 1080.419852 270.972558 1080.13656 C 270.972558 1079.853267 268.406077 1073.470859 263.25645 1060.972672 C 258.106824 1048.474484 254.107114 1038.625912 251.240655 1031.410292 C 248.390861 1024.178007 244.374486 1013.21293 239.224859 998.498397 C 234.075232 983.783864 228.942271 968.08614 223.792644 951.438554 C 218.643018 934.774304 212.9101 914.493911 206.627222 890.614041 C 200.327679 866.73417 195.894667 848.970079 193.328186 837.305104 C 190.74504 825.640129 187.178632 808.70925 182.595631 786.495805 C 178.029295 764.282359 175.312825 749.70114 174.446222 742.752147 C 173.596283 735.819819 171.729752 714.5729 168.879958 679.028054 C 166.0135 643.483208 164.146968 616.687094 163.29703 598.639711 C 162.430426 580.592327 161.430498 561.42844 160.297247 541.164711 C 159.147331 520.884319 157.580778 487.705796 155.580923 441.61248 C 153.564402 395.519163 152.564475 362.890561 152.564475 343.726673 L 152.564475 314.997506 L 155.364272 313.531052 C 157.214137 312.564525 162.297102 311.381363 170.596501 309.998231 C 178.879234 308.598434 190.328404 306.798695 204.91068 304.582349 C 219.492956 302.34934 241.658016 298.749862 271.40586 293.750586 C 301.153703 288.751311 322.452159 285.135169 335.334559 282.918824 C 348.200293 280.702478 365.215726 277.21965 386.380858 272.503667 C 407.54599 267.787684 425.844664 263.33833 441.293544 259.172267 C 456.742424 255.006204 470.04146 251.123434 481.190652 247.507292 C 492.356509 243.907814 501.072544 241.124884 507.372087 239.175167 C 513.654965 237.242114 519.65453 235.292396 525.387448 233.359343 C 531.1037 231.409626 542.536205 227.243563 559.701627 220.861156 C 576.867049 214.462083 592.949217 208.013019 607.964795 201.480632 C 622.980373 194.964911 630.996459 191.63206 631.996386 191.498746 C 632.996314 191.348768 640.212457 188.232553 653.661482 182.116774 C 667.093842 176.017658 679.259627 170.451798 690.125506 165.452523 C 700.991385 160.453248 711.72394 155.453973 722.306506 150.471362 C 732.889072 145.472087 746.038119 138.939701 761.770312 130.890868 L 785.368601 118.809287 Z M 790.934865 118.809287 " transform="matrix(0.234392,0,0,0.234409,7.154172,-9.502308)"/>
<path style="fill-rule:evenodd;fill:rgb(0%,0%,0%);fill-opacity:1;stroke-width:2;stroke-linecap:butt;stroke-linejoin:miter;stroke:rgb(0%,0%,0%);stroke-opacity:1;stroke-miterlimit:4;" d="M 769.33643 132.957235 L 774.919359 132.957235 L 798.934285 145.038817 C 814.966456 153.087649 825.549022 158.370217 830.681983 160.869854 C 835.83161 163.369492 853.363672 171.484982 883.24484 185.232988 C 913.126007 198.980995 928.574887 205.913323 929.574814 206.063301 C 930.574742 206.196615 938.5075 209.462808 953.389755 215.845216 C 968.255344 222.227624 979.704514 226.960271 987.703934 230.009829 C 995.720019 233.059387 1007.302513 237.225449 1022.451415 242.508017 C 1037.616982 247.77392 1047.199621 251.10677 1051.199331 252.506567 C 1055.199041 253.8897 1060.215344 255.556125 1066.214909 257.505842 C 1072.23114 259.438895 1079.947247 261.805219 1089.379897 264.588148 C 1098.829212 267.354414 1110.828342 270.687264 1125.427283 274.570034 C 1140.00956 278.469469 1154.175199 281.935633 1167.890872 284.985191 C 1181.62321 288.051413 1190.489234 289.984466 1194.488944 290.817678 C 1198.505319 291.650891 1211.221064 294.017214 1232.669509 297.899985 C 1254.13462 301.782755 1267.566979 304.149079 1272.999919 304.982291 C 1278.432858 305.815504 1291.731894 307.898535 1312.897027 311.231385 C 1334.062159 314.564235 1344.794714 316.23066 1345.078027 316.23066 C 1345.36134 316.23066 1355.660593 318.180377 1375.959122 322.063148 C 1396.274316 325.945918 1406.490242 327.962292 1406.640231 328.095606 L 1406.856882 328.312242 L 1405.573642 390.36991 C 1404.707038 431.747243 1402.557194 485.189494 1399.140775 550.729991 C 1395.70769 616.270487 1392.991221 662.080512 1390.9747 688.176728 C 1388.974845 714.289608 1386.691677 736.636368 1384.125197 755.233671 C 1381.542051 773.847639 1378.542268 791.478415 1375.109184 808.142666 C 1371.676099 824.806916 1367.959702 841.60448 1363.959992 858.535359 C 1359.943616 875.466237 1356.377208 890.330748 1353.227436 903.095564 C 1350.077665 915.877044 1346.361267 929.625051 1342.078245 944.339584 C 1337.778556 959.054117 1335.212076 967.936162 1334.345472 971.002384 C 1333.495533 974.051942 1332.212293 977.934712 1330.495751 982.650695 C 1328.779209 987.383342 1326.779354 993.21583 1324.47952 1000.148158 C 1322.196353 1007.09715 1318.629944 1017.095701 1313.763631 1030.143809 C 1308.897317 1043.191917 1304.897607 1053.607073 1301.747835 1061.372614 C 1298.598063 1069.154819 1294.748342 1078.45347 1290.165341 1089.285233 C 1285.58234 1100.116996 1279.732764 1113.165104 1272.566617 1128.446221 C 1265.417135 1143.710675 1261.134112 1152.59272 1259.700883 1155.092358 C 1258.267654 1157.591995 1253.051365 1166.690676 1244.052017 1182.371735 C 1235.036004 1198.069459 1229.603065 1207.368111 1227.736533 1210.284355 C 1225.886668 1213.200599 1221.453656 1220.566197 1214.437498 1232.364486 C 1207.438005 1244.162776 1202.855004 1251.661688 1200.721825 1254.861224 C 1198.571981 1258.044096 1195.288886 1263.043371 1190.855874 1269.842385 C 1186.422862 1276.658064 1182.839788 1281.923967 1180.123318 1285.673423 C 1177.406849 1289.42288 1174.257077 1293.872234 1170.690669 1299.004823 C 1167.107595 1304.137413 1163.674511 1308.87006 1160.391415 1313.169436 C 1157.10832 1317.468813 1154.525174 1321.084955 1152.675308 1324.001199 C 1150.808777 1326.917443 1148.092307 1330.666899 1144.509233 1335.249568 C 1140.942825 1339.832237 1137.509741 1344.398241 1134.226645 1348.98091 C 1130.926885 1353.563579 1127.360477 1358.296226 1123.49409 1363.145523 C 1119.627704 1368.011484 1116.344608 1372.177547 1113.628139 1375.643711 C 1110.911669 1379.109875 1105.112089 1385.708918 1096.246065 1395.424176 C 1087.380041 1405.156098 1076.947464 1416.254489 1064.931669 1428.752677 C 1052.915873 1441.250864 1042.333307 1451.932649 1033.18397 1460.831358 C 1024.034634 1469.713404 1017.951741 1475.329256 1014.951959 1477.69558 C 1011.952176 1480.061903 1004.936018 1486.027705 993.936815 1495.609649 C 982.920947 1505.191593 976.204767 1511.007416 973.77161 1513.090447 C 971.338454 1515.173479 965.322223 1520.322732 955.739584 1528.504879 C 946.173611 1536.70369 939.874068 1541.969593 936.874285 1544.335917 C 933.874503 1546.70224 930.441418 1549.468506 926.575032 1552.668042 C 922.708645 1555.867578 917.359033 1560.233612 910.492864 1565.782807 C 903.626695 1571.348667 898.410407 1575.431408 894.827333 1578.081024 C 891.24426 1580.713975 887.827841 1583.080299 884.52808 1585.16333 C 881.244985 1587.229697 875.228754 1590.84584 866.512719 1595.978429 C 857.796684 1601.127682 852.063767 1604.593846 849.347297 1606.393585 C 846.630827 1608.209988 843.564383 1610.076384 840.131298 1612.026102 C 836.698214 1613.959155 833.11514 1616.192164 829.398743 1618.691802 C 825.682346 1621.191439 822.965876 1622.991178 821.249334 1624.107683 C 819.532792 1625.207524 815.816394 1627.157241 810.100142 1629.923507 C 804.38389 1632.706436 797.517721 1635.905972 789.501635 1639.50545 C 781.502215 1643.121593 775.919286 1645.487916 772.769515 1646.587757 L 768.05319 1648.254182 L 762.903563 1647.004363 C 759.470479 1646.171151 755.754082 1644.788018 751.754372 1642.838301 C 747.754662 1640.905248 741.021816 1637.572397 731.589167 1632.83975 C 722.156517 1628.123768 716.706912 1625.207524 715.290348 1624.107683 C 713.857119 1622.991178 710.207383 1620.558198 704.341142 1616.808742 C 698.474901 1613.059285 694.041889 1610.29302 691.042106 1608.476616 C 688.042323 1606.676877 682.176082 1603.210713 673.460047 1598.06146 C 664.727347 1592.928871 658.727782 1589.312729 655.444687 1587.229697 C 652.144926 1585.16333 648.711841 1582.797007 645.145433 1580.164055 C 641.56236 1577.514439 637.495988 1574.398224 632.912987 1570.782082 C 628.329985 1567.182604 622.263759 1562.249986 614.680975 1556.000892 C 607.098191 1549.751798 600.532001 1544.335917 594.949072 1539.753248 C 589.366143 1535.170579 581.216734 1528.238251 570.484179 1518.922935 C 559.768289 1509.624283 552.90212 1503.791796 549.902337 1501.442137 C 546.902555 1499.075813 540.319699 1493.526618 530.170435 1484.777886 C 520.02117 1476.029155 514.37158 1471.096537 513.221663 1469.996696 C 512.071747 1468.880191 507.005447 1463.947573 497.989434 1455.198842 C 488.973421 1446.45011 482.690543 1440.201017 479.10747 1436.45156 C 475.541061 1432.718768 467.674965 1424.386643 455.50918 1411.471849 C 443.360061 1398.557055 436.06059 1390.641536 433.644099 1387.725292 C 431.210942 1384.809048 427.627868 1380.509672 422.911543 1374.810498 C 418.195219 1369.127989 414.478821 1364.54532 411.762352 1361.062492 C 409.045882 1357.596328 406.329412 1353.980185 403.612942 1350.247393 C 400.896473 1346.497937 398.030014 1342.598502 395.030231 1338.582418 C 392.030449 1334.549669 389.313979 1330.933527 386.880822 1327.750655 C 384.447665 1324.551119 382.364483 1321.701532 380.64794 1319.201895 C 378.931398 1316.702257 376.581568 1313.452729 373.581786 1309.41998 C 370.565338 1305.387231 367.998857 1301.787753 365.849013 1298.588217 C 363.715834 1295.405345 360.849376 1291.239283 357.266302 1286.090029 C 353.699894 1280.95744 350.983424 1276.924692 349.116893 1274.008448 C 347.267027 1271.092204 344.267244 1266.5262 340.117545 1260.277106 C 335.967846 1254.028012 333.251376 1249.711971 331.968136 1247.362312 C 330.66823 1244.995988 327.101822 1239.030187 321.235581 1229.448243 C 315.369339 1219.866299 311.519618 1213.617205 309.653087 1210.700961 C 307.786556 1207.784717 303.153558 1199.802541 295.704098 1186.754433 C 288.271304 1173.706325 282.70504 1163.841089 278.971978 1157.175389 C 275.25558 1150.509689 271.972485 1144.277259 269.106026 1138.444772 C 266.256233 1132.612284 262.239857 1123.863552 257.106896 1112.198577 C 251.957269 1100.533602 249.374123 1094.5678 249.374123 1094.284508 C 249.374123 1094.001216 246.807643 1087.618808 241.658016 1075.12062 C 236.508389 1062.622433 232.508679 1052.773861 229.64222 1045.55824 C 226.775761 1038.325956 222.776051 1027.360879 217.626425 1012.646346 C 212.476798 997.931813 207.327171 982.234089 202.19421 965.586503 C 197.044583 948.922253 191.311666 928.658524 185.028788 904.761989 C 178.729244 880.882118 174.296232 863.118028 171.729752 851.453052 C 169.146606 839.788077 165.580198 822.857199 160.997197 800.643753 C 156.430861 778.430307 153.714391 763.849088 152.847787 756.900096 C 151.997849 749.967768 150.131318 728.720849 147.264859 693.176003 C 144.415065 657.631157 142.548534 630.835042 141.698596 612.787659 C 140.831992 594.740276 139.832064 575.576388 138.698813 555.31266 C 137.548896 535.032267 135.982343 501.853745 133.965823 455.760428 C 131.965968 409.667112 130.96604 377.03851 130.96604 357.874622 L 130.96604 329.145454 L 133.765837 327.679 C 135.615703 326.712474 140.698668 325.529312 148.981401 324.146179 C 157.280799 322.746382 168.729969 320.946643 183.312246 318.730298 C 197.894522 316.513952 220.059582 312.89781 249.807425 307.898535 C 279.555269 302.89926 300.853725 299.283118 313.736124 297.066772 C 326.601858 294.850427 343.617291 291.367599 364.782424 286.651616 C 385.947556 281.935633 404.24623 277.486278 419.69511 273.320216 C 435.14399 269.154153 448.443026 265.271383 459.592218 261.671905 C 470.741409 258.055762 479.47411 255.272832 485.756988 253.339779 C 492.056531 251.390062 498.056096 249.440345 503.789014 247.507292 C 509.505266 245.557575 520.937771 241.391512 538.103193 235.009104 C 555.268615 228.626696 571.350783 222.160967 586.366361 215.645245 C 601.381939 209.112859 609.398025 205.780009 610.397952 205.646695 C 611.39788 205.496717 618.614023 202.380502 632.063048 196.264722 C 645.495408 190.165606 657.661193 184.599747 668.527072 179.617136 C 679.392951 174.617861 690.125506 169.618586 700.708072 164.619311 C 711.290638 159.620036 724.439685 153.087649 740.171878 145.038817 L 763.770167 132.957235 Z M 769.33643 132.957235 " transform="matrix(0.234392,0,0,0.234409,7.154172,-9.502308)"/>
<g clip-path="url(#clip1)" clip-rule="nonzero">
<path style="fill-rule:evenodd;fill:rgb(0%,0%,0%);fill-opacity:1;stroke-width:2;stroke-linecap:butt;stroke-linejoin:miter;stroke:rgb(0%,0%,0%);stroke-opacity:1;stroke-miterlimit:4;" d="M 789.018337 60.617724 L 795.034567 60.617724 L 820.966021 73.649168 C 838.248101 82.347907 849.680606 88.030416 855.230204 90.730025 C 860.796467 93.429633 879.695097 102.195029 911.959425 117.026212 C 944.207087 131.874059 960.889211 139.356307 961.972466 139.506285 C 963.039055 139.656264 971.605101 143.189085 987.670603 150.07142 C 1003.71944 156.97042 1016.068544 162.06968 1024.701252 165.369202 C 1033.350625 168.668724 1045.849719 173.151407 1062.215199 178.85058 C 1078.564014 184.549754 1088.913264 188.149232 1093.229617 189.649015 C 1097.562637 191.148797 1102.962245 192.931872 1109.445109 195.031568 C 1115.927972 197.131263 1124.260701 199.680893 1134.443296 202.680458 C 1144.625892 205.680023 1157.591618 209.279502 1173.340477 213.462228 C 1189.089335 217.661619 1204.371561 221.411076 1219.187153 224.710597 C 1234.002746 228.010119 1243.568719 230.109814 1247.885073 231.009684 C 1252.218092 231.909554 1265.95043 234.459184 1289.098752 238.641911 C 1312.247074 242.841302 1326.762688 245.390932 1332.62893 246.290802 C 1338.495171 247.190671 1352.844131 249.440345 1375.692475 253.039823 C 1398.524153 256.622637 1410.106646 258.422376 1410.42329 258.422376 C 1410.723268 258.422376 1421.839129 260.522071 1443.754207 264.721462 C 1465.669285 268.920853 1476.701819 271.087206 1476.868473 271.237184 L 1477.085124 271.470484 L 1475.701891 338.46077 C 1474.785291 383.120961 1472.468792 440.812596 1468.752395 511.552338 C 1465.052663 582.275417 1462.119543 631.734912 1459.953033 659.897495 C 1457.803189 688.076742 1455.336701 712.206577 1452.553569 732.286998 C 1449.770438 752.36742 1446.537339 771.397994 1442.820942 789.37872 C 1439.12121 807.359446 1435.104834 825.506815 1430.788481 843.787497 C 1426.472127 862.06818 1422.60574 878.099189 1419.205987 891.897188 C 1415.822899 905.678523 1411.806523 920.509706 1407.173526 936.407401 C 1402.540528 952.288431 1399.774062 961.870375 1398.840797 965.169897 C 1397.907531 968.469418 1396.524298 972.668809 1394.674432 977.76807 C 1392.824566 982.850666 1390.658056 989.149753 1388.191568 996.648665 C 1385.725081 1004.130914 1381.858694 1014.929348 1376.609075 1029.01064 C 1371.359455 1043.108595 1367.043102 1054.3403 1363.643348 1062.739082 C 1360.26026 1071.1212 1356.093895 1081.169743 1351.144254 1092.851383 C 1346.211278 1104.549686 1339.878404 1118.630978 1332.162297 1135.111921 C 1324.446189 1151.592865 1319.813192 1161.191473 1318.263304 1163.891082 C 1316.730082 1166.59069 1311.097157 1176.405934 1301.364529 1193.336812 C 1291.648567 1210.26769 1285.782326 1220.316233 1283.782471 1223.465777 C 1281.76595 1226.598656 1276.982964 1234.547503 1269.416845 1247.27899 C 1261.850727 1260.027142 1256.917751 1268.109303 1254.601253 1271.558803 C 1252.284754 1275.008303 1248.735011 1280.40752 1243.952025 1287.756455 C 1239.169038 1295.088725 1235.302652 1300.787898 1232.369531 1304.837311 C 1229.453076 1308.886724 1226.053322 1313.669364 1222.186936 1319.218559 C 1218.337215 1324.767754 1214.620818 1329.867015 1211.071075 1334.499677 C 1207.521332 1339.149003 1204.754866 1343.048437 1202.738346 1346.19798 C 1200.738491 1349.347524 1197.80537 1353.380272 1193.938984 1358.329555 C 1190.089263 1363.278837 1186.389531 1368.228119 1182.839788 1373.177402 C 1179.290045 1378.11002 1175.423659 1383.20928 1171.257294 1388.458519 C 1167.09093 1393.707758 1163.541187 1398.190441 1160.608066 1401.939898 C 1157.674946 1405.689354 1151.425399 1412.804989 1141.859426 1423.303467 C 1132.276787 1433.78528 1121.010937 1445.78354 1108.04521 1459.264919 C 1095.079483 1472.746297 1083.663644 1484.294623 1073.781027 1493.876567 C 1063.915076 1503.475175 1057.348885 1509.540962 1054.099121 1512.090592 C 1050.866022 1514.640223 1043.299904 1521.089288 1031.417432 1531.421123 C 1019.53496 1541.769622 1012.285485 1548.052045 1009.652343 1550.301718 C 1007.035866 1552.551392 1000.553002 1558.100588 990.203753 1566.949305 C 979.871168 1575.781357 973.071661 1581.480531 969.838562 1584.030161 C 966.588798 1586.579791 962.889066 1589.562692 958.722701 1593.012192 C 954.556337 1596.461692 948.773423 1601.177675 941.357294 1607.176805 C 933.95783 1613.175935 928.30824 1617.591961 924.458519 1620.441548 C 920.592132 1623.291135 916.8924 1625.840765 913.342658 1628.090439 C 909.792915 1630.340113 903.310052 1634.222883 893.894068 1639.772079 C 884.478084 1645.321274 878.311864 1649.07073 875.378743 1651.020447 C 872.445622 1652.970165 869.129196 1654.986539 865.412799 1657.086235 C 861.713067 1659.18593 857.863346 1661.585582 853.846971 1664.268526 C 849.830595 1666.968135 846.897474 1668.917852 845.047609 1670.117678 C 843.197743 1671.317504 839.181367 1673.4172 832.998482 1676.416765 C 826.832262 1679.41633 819.416133 1682.86583 810.783426 1686.7486 C 802.134053 1690.648035 796.117822 1693.197665 792.718069 1694.397491 L 787.635104 1696.19723 L 782.068841 1694.847426 C 778.369109 1693.947556 774.352733 1692.447774 770.03638 1690.348078 C 765.70336 1688.248383 758.453886 1684.665569 748.271291 1679.566308 C 738.088696 1674.467048 732.222454 1671.317504 730.672566 1670.117678 C 729.139344 1668.917852 725.189631 1666.301565 718.873422 1662.252152 C 712.540548 1658.202739 707.757561 1655.203174 704.507797 1653.253457 C 701.274698 1651.320404 694.941823 1647.570948 685.525839 1642.021752 C 676.109855 1636.472557 669.626992 1632.573122 666.077249 1630.340113 C 662.527506 1628.090439 658.827775 1625.540809 654.961388 1622.691222 C 651.111667 1619.841635 646.711986 1616.475457 641.779011 1612.576022 C 636.829369 1608.676587 630.279844 1603.360692 622.097104 1596.61167 C 613.914364 1589.862649 606.814878 1584.030161 600.798648 1579.080879 C 594.765752 1574.131596 585.983055 1566.649348 574.400562 1556.600805 C 562.818068 1546.552262 555.418604 1540.26984 552.16884 1537.720209 C 548.935741 1535.170579 541.836256 1529.171449 530.870384 1519.739483 C 519.921178 1510.290853 513.82162 1504.974958 512.588376 1503.775132 C 511.355132 1502.575306 505.872196 1497.25941 496.139568 1487.81078 C 486.423606 1478.378814 479.624099 1471.629793 475.774378 1467.58038 C 471.907991 1463.530967 463.425273 1454.548936 450.309557 1440.600959 C 437.177176 1426.669645 429.311079 1418.120885 426.694602 1414.988006 C 424.06146 1411.838462 420.211739 1407.189137 415.112109 1401.040028 C 410.012478 1394.907584 406.012768 1389.958302 403.079648 1386.208845 C 400.146527 1382.459389 397.213406 1378.559955 394.280285 1374.527206 C 391.347165 1370.477793 388.264055 1366.278402 385.014291 1361.929033 C 381.781192 1357.579663 378.848071 1353.696893 376.214928 1350.247393 C 373.598451 1346.797893 371.348614 1343.731671 369.498749 1341.032063 C 367.648883 1338.332454 365.099068 1334.799633 361.865969 1330.466928 C 358.616204 1326.117559 355.849738 1322.218124 353.533239 1318.768624 C 351.216741 1315.319125 348.133631 1310.836441 344.267244 1305.287246 C 340.417523 1299.73805 337.484403 1295.388681 335.467882 1292.239138 C 333.468027 1289.106259 330.218263 1284.156976 325.75192 1277.407955 C 321.268912 1270.658934 318.335791 1266.026272 316.952558 1263.476642 C 315.552659 1260.927011 311.702938 1254.477947 305.370064 1244.146111 C 299.03719 1233.797612 294.870825 1227.048591 292.87097 1223.915711 C 290.871115 1220.766168 285.854812 1212.150751 277.822061 1198.052795 C 269.78931 1183.971503 263.773079 1173.339712 259.756704 1166.140756 C 255.756994 1158.941799 252.207251 1152.209442 249.107476 1145.910356 C 246.024366 1139.611269 241.708012 1130.179303 236.141749 1117.58113 C 230.592152 1104.999621 227.80902 1098.550556 227.80902 1098.2506 C 227.80902 1097.950643 225.042554 1091.051644 219.476291 1077.570265 C 213.926693 1064.088887 209.593674 1053.440431 206.510564 1045.641561 C 203.427454 1037.859357 199.1111 1026.011075 193.544837 1010.130044 C 187.995239 994.249013 182.428976 977.318135 176.879379 959.320745 C 171.329781 941.340019 165.146896 919.459858 158.364054 893.680263 C 151.564547 867.917332 146.78156 848.73678 143.998429 836.138606 C 141.231963 823.557097 137.365576 805.276415 132.432601 781.296558 C 127.482959 757.316702 124.549839 741.58565 123.633238 734.086737 C 122.699973 726.587825 120.700118 703.657816 117.617008 665.296712 C 114.517233 626.935608 112.517378 598.006469 111.584112 578.52596 C 110.667512 559.045452 109.584257 538.365117 108.351013 516.484956 C 107.117769 494.604796 105.417892 458.793322 103.251383 409.03387 C 101.101539 359.291083 100.018284 324.062858 100.018284 303.382523 L 100.018284 272.370353 L 103.018066 270.78725 C 105.034587 269.737402 110.517523 268.470919 119.466874 266.971136 C 128.416225 265.471354 140.76533 263.521636 156.514188 261.121984 C 172.246381 258.722332 196.17798 254.839562 228.275653 249.440345 C 260.389991 244.041128 283.371659 240.141693 297.270651 237.742041 C 311.169644 235.342389 329.534979 231.609597 352.366657 226.510336 C 375.215001 221.411076 394.980235 216.611772 411.645693 212.112424 C 428.311152 207.629741 442.660112 203.43035 454.709238 199.530915 C 466.741699 195.631481 476.157683 192.631915 482.95719 190.548884 C 489.740032 188.449189 496.222895 186.349493 502.405781 184.249798 C 508.572 182.150102 520.921105 177.650754 539.43643 170.751755 C 557.968419 163.869419 575.333827 156.903763 591.532653 149.854785 C 607.731479 142.805807 616.380852 139.206329 617.464106 139.056351 C 618.547361 138.906372 626.33013 135.540194 640.845745 128.941151 C 655.361359 122.358772 668.477075 116.359642 680.209558 110.960425 C 691.925375 105.561208 703.507869 100.178655 714.923708 94.779438 C 726.356213 89.38022 740.555183 82.347907 757.537286 73.649168 L 783.002106 60.617724 Z M 789.018337 60.617724 " transform="matrix(0.234392,0,0,0.234409,7.154172,-9.502308)"/>
</g>
<path style="fill-rule:evenodd;fill:rgb(100%,76.469421%,0%);fill-opacity:1;stroke-width:2;stroke-linecap:butt;stroke-linejoin:miter;stroke:rgb(0%,0%,0%);stroke-opacity:1;stroke-miterlimit:4;" d="M 791.568152 125.558308 L 797.134415 125.558308 L 821.166006 137.639889 C 837.181512 145.688722 847.764078 150.97129 852.913705 153.470927 C 858.063332 155.970565 875.578729 164.086055 905.459896 177.834061 C 935.357729 191.582068 950.789943 198.514396 951.789871 198.664374 C 952.806464 198.797688 960.739222 202.063881 975.604811 208.446289 C 990.487065 214.828697 1001.91957 219.561344 1009.935656 222.610902 C 1017.935076 225.66046 1029.517569 229.826522 1044.683137 235.10909 C 1059.832038 240.374993 1069.414677 243.707843 1073.414387 245.10764 C 1077.430763 246.490773 1082.4304 248.157198 1088.429965 250.106915 C 1094.446196 252.039968 1102.162303 254.406291 1111.611618 257.172557 C 1121.044268 259.955487 1133.060063 263.288337 1147.64234 267.171107 C 1162.224616 271.070542 1176.390256 274.536706 1190.122594 277.586264 C 1203.838266 280.652486 1212.70429 282.585539 1216.720665 283.418751 C 1220.720375 284.251964 1233.452786 286.618287 1254.901231 290.501058 C 1276.349676 294.383828 1289.782036 296.750152 1295.214975 297.583364 C 1300.66458 298.416577 1313.963616 300.499608 1335.128748 303.832458 C 1356.293881 307.165308 1367.009771 308.831733 1367.293083 308.831733 C 1367.576396 308.831733 1377.87565 310.764786 1398.190844 314.664221 C 1418.489372 318.546991 1428.721964 320.563365 1428.855287 320.696679 L 1429.071938 320.913315 L 1427.788698 382.970983 C 1426.922094 424.348316 1424.788915 477.790567 1421.355831 543.331064 C 1417.922747 608.854896 1415.206277 654.681584 1413.206422 680.7778 C 1411.206567 706.874016 1408.906733 729.23744 1406.340253 747.834744 C 1403.757107 766.448711 1400.757324 784.079488 1397.32424 800.743739 C 1393.891155 817.391325 1390.174758 834.205553 1386.175048 851.136432 C 1382.175338 868.06731 1378.592264 882.931821 1375.442493 895.696637 C 1372.309386 908.478117 1368.576324 922.226123 1364.293301 936.940657 C 1360.010278 951.65519 1357.427132 960.537235 1356.577194 963.603457 C 1355.71059 966.653015 1354.427349 970.535785 1352.710807 975.251768 C 1350.994265 979.984415 1348.99441 985.816903 1346.711242 992.749231 C 1344.411409 999.698223 1340.845001 1009.696773 1335.978687 1022.744881 C 1331.112373 1035.792989 1327.112663 1046.208146 1323.962891 1053.973687 C 1320.829785 1061.755892 1316.963399 1071.054543 1312.380397 1081.886306 C 1307.814062 1092.718069 1301.94782 1105.766177 1294.798339 1121.047294 C 1287.648857 1136.311747 1283.349169 1145.193793 1281.915939 1147.69343 C 1280.499375 1150.193068 1275.266421 1159.291749 1266.267074 1174.972808 C 1257.251061 1190.670532 1251.818121 1199.969184 1249.968255 1202.885428 C 1248.101724 1205.801671 1243.668712 1213.16727 1236.669219 1224.965559 C 1229.653061 1236.763848 1225.086726 1244.262761 1222.936881 1247.445633 C 1220.787037 1250.645169 1217.503942 1255.644444 1213.07093 1262.443458 C 1208.637918 1269.259137 1205.054844 1274.52504 1202.338375 1278.274496 C 1199.621905 1282.023952 1196.488799 1286.473307 1192.905725 1291.605896 C 1189.322651 1296.738485 1185.906232 1301.471133 1182.606472 1305.770509 C 1179.323376 1310.069886 1176.74023 1313.686028 1174.890364 1316.602272 C 1173.023833 1319.518516 1170.307363 1323.267972 1166.740955 1327.850641 C 1163.157882 1332.416645 1159.724797 1336.999314 1156.441702 1341.581983 C 1153.158606 1346.164652 1149.575533 1350.897299 1145.709146 1355.746596 C 1141.859426 1360.612557 1138.559665 1364.77862 1135.843195 1368.244784 C 1133.126725 1371.710948 1127.343811 1378.309991 1118.477787 1388.025249 C 1109.611763 1397.757171 1099.162521 1408.855562 1087.146725 1421.353749 C 1075.147595 1433.851937 1064.565029 1444.533722 1055.399027 1453.432431 C 1046.24969 1462.314477 1040.183463 1467.930329 1037.167015 1470.296653 C 1034.167232 1472.646312 1027.16774 1478.628778 1016.151872 1488.210722 C 1005.136004 1497.776001 998.419824 1503.608489 995.986667 1505.69152 C 993.55351 1507.774552 987.553945 1512.923805 977.971306 1521.105952 C 968.388667 1529.304763 962.089124 1534.570666 959.089342 1536.93699 C 956.089559 1539.303313 952.656474 1542.069579 948.790088 1545.269115 C 944.940367 1548.468651 939.57409 1552.834685 932.707921 1558.38388 C 925.841752 1563.933075 920.625463 1568.032481 917.04239 1570.682097 C 913.475981 1573.315048 910.042897 1575.664707 906.743136 1577.747739 C 903.460041 1579.83077 897.460476 1583.446912 888.727775 1588.579501 C 880.011741 1593.728755 874.295488 1597.194919 871.579019 1598.994658 C 868.862549 1600.811061 865.779439 1602.677457 862.346355 1604.627175 C 858.91327 1606.560228 855.346862 1608.793237 851.630465 1611.292875 C 847.897402 1613.792512 845.180932 1615.592251 843.46439 1616.692092 C 841.747848 1617.808597 838.031451 1619.758314 832.315198 1622.524579 C 826.598946 1625.307509 819.732777 1628.507045 811.716691 1632.106523 C 803.717271 1635.722666 798.134343 1638.088989 794.984571 1639.18883 L 790.268246 1640.855255 L 785.11862 1639.605436 C 781.685535 1638.772223 777.969138 1637.389091 773.969428 1635.439373 C 769.969718 1633.50632 763.253538 1630.17347 753.804223 1625.440823 C 744.371573 1620.72484 738.938634 1617.808597 737.505404 1616.692092 C 736.072175 1615.592251 732.42244 1613.159271 726.572864 1609.409814 C 720.706622 1605.660358 716.27361 1602.877428 713.273828 1601.077689 C 710.25738 1599.27795 704.407804 1595.811786 695.675104 1590.662533 C 686.959069 1585.529944 680.942838 1581.913801 677.659743 1579.83077 C 674.359982 1577.747739 670.943563 1575.398079 667.360489 1572.765128 C 663.794081 1570.115512 659.711044 1566.999297 655.128043 1563.383155 C 650.561707 1559.783677 644.478815 1554.851059 636.896031 1548.601965 C 629.329913 1542.352871 622.747057 1536.93699 617.164128 1532.354321 C 611.5812 1527.771652 603.43179 1520.839324 592.715901 1511.524008 C 581.983345 1502.225356 575.117176 1496.392869 572.117394 1494.043209 C 569.117611 1491.676886 562.534755 1486.12769 552.385491 1477.378959 C 542.236227 1468.630228 536.586636 1463.69761 535.436719 1462.581105 C 534.303468 1461.481264 529.220503 1456.548646 520.20449 1447.799915 C 511.205143 1439.051183 504.905599 1432.802089 501.339191 1429.052633 C 497.756118 1425.303177 489.890021 1416.987716 477.740902 1404.072922 C 465.575117 1391.158128 458.292312 1383.242609 455.859155 1380.326365 C 453.425998 1377.410121 449.842924 1373.110745 445.1266 1367.411571 C 440.410275 1361.729062 436.693878 1357.146393 433.977408 1353.663565 C 431.260938 1350.1974 428.544468 1346.581258 425.827999 1342.831802 C 423.111529 1339.09901 420.24507 1335.199575 417.245287 1331.183491 C 414.245505 1327.150742 411.529035 1323.5346 409.095878 1320.351728 C 406.662721 1317.152192 404.596204 1314.302605 402.879662 1311.802968 C 401.16312 1309.30333 398.796625 1306.053801 395.796842 1302.021053 C 392.79706 1297.988304 390.213914 1294.388826 388.080735 1291.18929 C 385.930891 1287.989754 383.064432 1283.823691 379.498024 1278.691102 C 375.91495 1273.558513 373.19848 1269.525765 371.348614 1266.609521 C 369.482083 1263.693277 366.482301 1259.110608 362.332601 1252.878179 C 358.182902 1246.629085 355.466432 1242.313044 354.183192 1239.963385 C 352.899952 1237.597061 349.316878 1231.631259 343.450637 1222.049315 C 337.601061 1212.467372 333.734675 1206.218278 331.868143 1203.302034 C 330.018277 1200.38579 325.368614 1192.403614 317.93582 1179.355506 C 310.48636 1166.307398 304.920097 1156.442162 301.203699 1149.776462 C 297.487302 1143.110762 294.187541 1136.861668 291.337748 1131.045844 C 288.471289 1125.213357 284.471579 1116.464625 279.321952 1104.79965 C 274.172326 1093.134675 271.58918 1087.168873 271.58918 1086.885581 C 271.58918 1086.602289 269.022699 1080.219881 263.873072 1067.721693 C 258.723446 1055.223505 254.723736 1045.374933 251.857277 1038.159313 C 249.007483 1030.927028 244.991108 1019.961952 239.858146 1005.247419 C 234.70852 990.532886 229.558893 974.835162 224.409266 958.187576 C 219.25964 941.523325 213.543387 921.242933 207.243844 897.363062 C 200.960966 873.483191 196.527954 855.7191 193.944808 844.054125 C 191.378328 832.38915 187.795254 815.458272 183.228918 793.244826 C 178.645917 771.03138 175.929447 756.450161 175.062844 749.501169 C 174.212905 742.568841 172.346374 721.321921 169.49658 685.777076 C 166.630122 650.23223 164.780256 623.436115 163.913652 605.388732 C 163.063713 587.341349 162.063786 568.177461 160.913869 547.913733 C 159.763953 527.63334 158.1974 494.454817 156.197544 448.361501 C 154.197689 402.268185 153.197762 369.639583 153.197762 350.475695 L 153.197762 321.746527 L 155.980894 320.280073 C 157.830759 319.313547 162.913724 318.130385 171.213123 316.747252 C 179.495856 315.347455 190.945026 313.547716 205.527302 311.331371 C 220.109578 309.098361 242.274638 305.498883 272.022481 300.499608 C 301.770325 295.500333 323.085447 291.88419 335.951181 289.667845 C 348.816915 287.4515 365.832348 283.968672 386.99748 279.252689 C 408.162612 274.536706 426.477951 270.087351 441.910166 265.921288 C 457.359046 261.755226 470.658082 257.872456 481.807274 254.256313 C 492.973131 250.656835 501.689166 247.873905 507.988709 245.940852 C 514.271587 243.991135 520.287818 242.041418 526.00407 240.108365 C 531.720322 238.158647 543.169492 233.992585 560.318249 227.610177 C 577.483671 221.211105 593.565839 214.76204 608.581417 208.229654 C 623.596995 201.713932 631.613081 198.381082 632.613008 198.247768 C 633.612936 198.09779 640.829079 194.981575 654.278104 188.865795 C 667.72713 182.766679 679.876249 177.20082 690.742128 172.201545 C 701.608007 167.202269 712.340562 162.219659 722.923128 157.220384 C 733.505694 152.221108 746.654741 145.688722 762.386934 137.639889 L 785.985223 125.558308 Z M 791.568152 125.558308 " transform="matrix(0.234392,0,0,0.234409,7.154172,-9.502308)"/>
<path style="fill-rule:evenodd;fill:rgb(0%,0%,0%);fill-opacity:1;stroke-width:2;stroke-linecap:butt;stroke-linejoin:miter;stroke:rgb(0%,0%,0%);stroke-opacity:1;stroke-miterlimit:4;" d="M 789.66829 170.001864 L 794.834582 170.001864 L 817.1163 181.366882 C 831.981889 188.949116 841.797844 193.915063 846.564165 196.264722 C 851.347152 198.614381 867.595974 206.263272 895.310632 219.211395 C 923.025289 232.142853 937.357584 238.675239 938.274184 238.808553 C 939.207449 238.941867 946.573582 242.008089 960.355916 248.023884 C 974.154916 254.039678 984.770813 258.472369 992.186942 261.355284 C 999.619737 264.238199 1010.352292 268.154298 1024.417939 273.120245 C 1038.483586 278.086191 1047.366275 281.21907 1051.082673 282.518882 C 1054.782405 283.835358 1059.432067 285.401797 1064.998331 287.234865 C 1070.564594 289.067932 1077.730741 291.284277 1086.480107 293.900565 C 1095.246138 296.516852 1106.378664 299.649731 1119.911017 303.315866 C 1133.443369 306.965337 1146.559085 310.23153 1159.291495 313.114445 C 1172.023906 315.980696 1180.256642 317.813764 1183.973039 318.596984 C 1187.689437 319.380204 1199.488581 321.596549 1219.387139 325.262684 C 1239.269031 328.928819 1251.734794 331.145164 1256.784428 331.928384 C 1261.817396 332.711604 1274.149836 334.677985 1293.781746 337.810864 C 1313.413656 340.943743 1323.362935 342.510183 1323.629582 342.510183 C 1323.896229 342.510183 1333.445537 344.34325 1352.277505 348.009386 C 1371.109473 351.658856 1380.592119 353.558581 1380.725443 353.691895 L 1380.925429 353.891866 L 1379.725516 412.300063 C 1378.925574 451.261081 1376.942384 501.570452 1373.759281 563.261507 C 1370.576179 624.952562 1368.059695 668.079642 1366.193163 692.642747 C 1364.343297 717.222516 1362.210119 738.2528 1359.826958 755.766927 C 1357.443797 773.281054 1354.660666 789.878647 1351.477563 805.576371 C 1348.294461 821.257431 1344.844711 837.071804 1341.128314 853.002828 C 1337.411916 868.950515 1334.09549 882.931821 1331.179035 894.96341 C 1328.26258 906.994999 1324.81283 919.926457 1320.84645 933.774449 C 1316.863406 947.639105 1314.480245 956.004559 1313.680303 958.87081 C 1312.880361 961.753725 1311.680448 965.403196 1310.09723 969.852551 C 1308.497346 974.301906 1306.64748 979.784444 1304.530967 986.31683 C 1302.397788 992.849216 1299.081362 1002.264518 1294.581688 1014.54607 C 1290.065348 1026.827623 1286.348951 1036.642866 1283.432496 1043.958472 C 1280.516041 1051.274078 1276.932967 1060.022809 1272.699941 1070.221331 C 1268.450249 1080.419852 1263.017309 1092.701404 1256.384457 1107.082652 C 1249.751604 1121.4639 1245.76856 1129.829354 1244.451988 1132.179013 C 1243.118752 1134.528673 1238.285769 1143.094097 1229.919709 1157.858623 C 1221.570314 1172.623149 1216.52068 1181.388545 1214.804138 1184.121482 C 1213.07093 1186.871083 1208.971227 1193.803411 1202.471698 1204.901802 C 1195.972169 1216.016857 1191.722478 1223.082499 1189.739288 1226.082064 C 1187.739433 1229.081629 1184.689654 1233.797612 1180.589951 1240.196684 C 1176.473583 1246.595756 1173.157157 1251.561703 1170.640672 1255.094524 C 1168.124188 1258.627345 1165.207733 1262.810072 1161.891307 1267.642704 C 1158.57488 1272.475337 1155.391778 1276.924692 1152.341999 1280.974105 C 1149.29222 1285.023517 1146.892394 1288.423025 1145.175852 1291.172626 C 1143.442644 1293.905563 1140.92616 1297.438384 1137.609734 1301.754425 C 1134.293307 1306.070466 1131.110205 1310.386506 1128.060426 1314.685883 C 1125.010647 1319.001924 1121.694221 1323.451279 1118.111147 1328.017283 C 1114.544739 1332.599952 1111.49496 1336.516051 1108.96181 1339.782244 C 1106.445326 1343.048437 1101.079048 1349.264202 1092.846312 1358.412876 C 1084.630241 1367.561549 1074.947609 1378.010034 1063.815083 1389.774995 C 1052.665891 1401.539956 1042.849936 1411.605163 1034.367218 1419.970617 C 1025.867834 1428.33607 1020.234909 1433.618638 1017.451777 1435.851647 C 1014.668646 1438.067992 1008.169117 1443.683845 997.953191 1452.699204 C 987.737265 1461.731228 981.504383 1467.213766 979.254546 1469.180148 C 977.004709 1471.129865 971.438446 1475.962498 962.539091 1483.678046 C 953.656402 1491.393594 947.823492 1496.35954 945.04036 1498.575885 C 942.257228 1500.808895 939.074126 1503.408518 935.491052 1506.424747 C 931.907979 1509.424312 926.941672 1513.540382 920.575467 1518.772957 C 914.209262 1524.005531 909.359613 1527.854973 906.043187 1530.337947 C 902.726761 1532.82092 899.543658 1535.037265 896.493879 1537.003647 C 893.4441 1538.970028 887.877837 1542.369535 879.79509 1547.202168 C 871.695677 1552.034801 866.396061 1555.300994 863.879577 1557.000747 C 861.346427 1558.700501 858.496634 1560.466911 855.313531 1562.299979 C 852.130428 1564.116382 848.814002 1566.216078 845.364252 1568.565737 C 841.914502 1570.915396 839.398018 1572.61515 837.8148 1573.664997 C 836.214916 1574.714845 832.765166 1576.531248 827.46555 1579.147536 C 822.165934 1581.763823 815.799729 1584.780052 808.366934 1588.162895 C 800.93414 1591.562402 795.767848 1593.795412 792.851392 1594.828595 L 788.468377 1596.411699 L 783.702056 1595.228537 C 780.518953 1594.445318 777.069203 1593.145506 773.352806 1591.312439 C 769.636409 1589.479371 763.403527 1586.346492 754.654161 1581.897137 C 745.904796 1577.447782 740.855162 1574.714845 739.53859 1573.664997 C 738.205354 1572.61515 734.822266 1570.332147 729.389326 1566.799326 C 723.956387 1563.266505 719.840018 1560.666882 717.056887 1558.967129 C 714.273755 1557.267375 708.840816 1554.001182 700.741403 1549.151885 C 692.658656 1544.319253 687.075727 1540.919746 684.025948 1538.970028 C 680.976169 1537.003647 677.793066 1534.787301 674.47664 1532.304328 C 671.160214 1529.821355 667.39382 1526.871783 663.144128 1523.472275 C 658.894436 1520.072768 653.261511 1515.440107 646.228688 1509.557626 C 639.195864 1503.675146 633.096307 1498.575885 627.930014 1494.259845 C 622.763722 1489.960468 615.197604 1483.411418 605.248325 1474.662686 C 595.299047 1465.913955 588.932841 1460.414752 586.14971 1458.198407 C 583.366578 1455.965397 577.26702 1450.749487 567.851036 1442.517347 C 558.435052 1434.285208 553.202098 1429.635882 552.135509 1428.586034 C 551.06892 1427.552851 546.36926 1422.903525 538.0032 1414.671385 C 529.653805 1406.439245 523.820895 1400.556765 520.504469 1397.023944 C 517.188042 1393.507787 509.888571 1385.658925 498.622722 1373.510687 C 487.340206 1361.345784 480.57403 1353.896864 478.324193 1351.163927 C 476.074356 1348.414326 472.75793 1344.364913 468.374914 1338.999024 C 464.008564 1333.6498 460.558814 1329.333759 458.04233 1326.067566 C 455.50918 1322.801373 452.992696 1319.401866 450.476212 1315.869045 C 447.959727 1312.336224 445.30992 1308.686753 442.526788 1304.887304 C 439.726991 1301.104519 437.210507 1297.705012 434.96067 1294.705447 C 432.710833 1291.689218 430.77764 1289.006273 429.194421 1286.656614 C 427.594537 1284.306955 425.411362 1281.240733 422.62823 1277.441284 C 419.845099 1273.658499 417.445273 1270.258992 415.462083 1267.259427 C 413.478894 1264.243197 410.81242 1260.327098 407.51266 1255.494466 C 404.196233 1250.661833 401.663084 1246.862384 399.946541 1244.112783 C 398.213334 1241.379846 395.430202 1237.063805 391.597147 1231.181325 C 387.747426 1225.298844 385.230941 1221.249431 384.031028 1219.033086 C 382.831115 1216.800077 379.514689 1211.184224 374.08175 1202.168865 C 368.64881 1193.153505 365.065737 1187.271025 363.332529 1184.521424 C 361.615987 1181.771822 357.299633 1174.256245 350.416799 1161.974693 C 343.517299 1149.693141 338.334341 1140.411153 334.884591 1134.145395 C 331.451507 1127.862973 328.401728 1121.980492 325.735254 1116.497954 C 323.085447 1110.998751 319.369049 1102.766612 314.602728 1091.801535 C 309.819741 1080.819794 307.436581 1075.203942 307.436581 1074.937314 C 307.436581 1074.670686 305.05342 1068.654891 300.270434 1056.906595 C 295.504113 1045.141634 291.787715 1035.859646 289.137907 1029.060632 C 286.4881 1022.261618 282.771702 1011.946447 277.988716 998.081791 C 273.222395 984.233799 268.439408 969.469273 263.673087 953.771549 C 258.8901 938.09049 253.590484 919.009923 247.757574 896.529849 C 241.924663 874.049776 237.808295 857.335533 235.425134 846.353792 C 233.041974 835.372051 229.725548 819.424363 225.475856 798.510729 C 221.226164 777.597095 218.70968 763.882417 217.909738 757.350031 C 217.126461 750.817645 215.393253 730.820544 212.743445 697.35873 C 210.093637 663.896915 208.36043 638.66724 207.577153 621.686369 C 206.777211 604.688833 205.843946 586.658115 204.777356 567.577548 C 203.727432 548.496981 202.260872 517.251512 200.411006 473.874468 C 198.544475 430.48076 197.627874 399.768547 197.627874 381.721164 L 197.627874 354.675086 L 200.211021 353.308617 C 201.927563 352.392083 206.643888 351.275579 214.326664 349.975767 C 222.026106 348.659291 232.642003 346.959538 246.15769 344.876507 C 259.690042 342.776811 280.255218 339.377304 307.836552 334.677985 C 335.417886 329.978667 355.18312 326.57916 367.115588 324.479464 C 379.064722 322.396433 394.846911 319.13024 414.462156 314.680885 C 434.094066 310.23153 451.076168 306.048803 465.391797 302.132704 C 479.724092 298.216606 492.056531 294.550471 502.405781 291.150963 C 512.738365 287.751456 520.837778 285.151833 526.670688 283.318766 C 532.503599 281.485698 538.069862 279.652631 543.386143 277.819563 C 548.685759 276.00316 559.301656 272.070397 575.217169 266.071267 C 591.132682 260.055472 606.048267 253.973021 619.980591 247.823913 C 633.896249 241.691468 641.329043 238.558589 642.245643 238.425275 C 643.178909 238.291961 649.878423 235.342389 662.344186 229.593223 C 674.809949 223.844056 686.092465 218.628146 696.175067 213.912163 C 706.241004 209.212845 716.190283 204.513526 726.006238 199.797543 C 735.822193 195.098225 748.021309 188.949116 762.620251 181.366882 L 784.501998 170.001864 Z M 789.66829 170.001864 " transform="matrix(0.234392,0,0,0.234409,7.154172,-9.502308)"/>
<g clip-path="url(#clip2)" clip-rule="nonzero">
<path style=" stroke:none;fill-rule:nonzero;fill:rgb(100%,76.469421%,0%);fill-opacity:1;" d="M 144.367188 192.074219 C 144.367188 165.726562 165.726562 144.367188 192.074219 144.367188 C 205.226562 144.367188 217.132812 149.691406 225.761719 158.296875 L 246.34375 137.628906 C 232.441406 123.769531 213.257812 115.199219 192.074219 115.199219 C 149.617188 115.199219 115.199219 149.617188 115.199219 192.074219 C 115.199219 192.175781 115.203125 192.277344 115.203125 192.375 L 144.371094 192.292969 C 144.371094 192.21875 144.367188 192.148438 144.367188 192.074219 "/>
</g>
<g clip-path="url(#clip3)" clip-rule="nonzero">
<path style=" stroke:none;fill-rule:nonzero;fill:rgb(100%,76.469421%,0%);fill-opacity:1;" d="M 239.78125 192.230469 C 239.695312 218.507812 218.367188 239.785156 192.074219 239.785156 C 178.988281 239.785156 167.132812 234.511719 158.511719 225.976562 L 137.929688 246.644531 C 151.824219 260.433594 170.953125 268.949219 192.074219 268.949219 C 234.511719 268.949219 268.914062 234.566406 268.949219 192.140625 L 239.78125 192.230469 "/>
</g>
<path style=" stroke:none;fill-rule:nonzero;fill:rgb(100%,76.469421%,0%);fill-opacity:1;" d="M 221.246094 192.074219 C 221.246094 208.320312 208.074219 221.492188 191.828125 221.492188 C 175.582031 221.492188 162.414062 208.320312 162.414062 192.074219 C 162.414062 175.828125 175.582031 162.660156 191.828125 162.660156 C 208.074219 162.660156 221.246094 175.828125 221.246094 192.074219 "/>
</g>
</svg>
